<svg viewBox="0 0 280 280" fill="none" xmlns="http://www.w3.org/2000/svg"><g transform="translate(40, 36)"><path d="M100 0C69.072 0 44 25.072 44 56v6.166c-5.675.952-10 5.888-10 11.834v14c0 6.052 4.48 11.058 10.305 11.881 2.067 19.806 14.458 36.541 31.695 44.73V163h-4c-39.764 0-72 32.236-72 72v9h200v-9c0-39.764-32.236-72-72-72h-4v-18.389c17.237-8.189 29.628-24.924 31.695-44.73C161.52 99.058 166 94.052 166 88V74c0-5.946-4.325-10.882-10-11.834V56c0-30.928-25.072-56-56-56z" fill="#F9D562"/><path d="M76 144.611v8A55.79 55.79 0 00100 158a55.789 55.789 0 0024-5.389v-8A55.789 55.789 0 01100 150a55.79 55.79 0 01-24-5.389z" fill="#000" fill-opacity=".1"/></g><g transform="translate(8, 170)"><path d="M132.5 51.828c18.502 0 33.5-9.617 33.5-21.48 0-.353-.013-.704-.04-1.053 36.976 3.03 66.04 34 66.04 71.757V110H32v-8.948c0-38.1 29.592-69.287 67.045-71.833-.03.374-.045.75-.045 1.129 0 11.863 14.998 21.48 33.5 21.48z" fill="#E6E6E6"/><path d="M132.5 58.761c21.89 0 39.635-12.05 39.635-26.913 0-.603-.029-1.2-.086-1.793a72.056 72.056 0 00-6.089-.76c.027.349.04.7.04 1.053 0 11.863-14.998 21.48-33.5 21.48-18.502 0-33.5-9.617-33.5-21.48 0-.379.015-.755.045-1.128-2.05.139-4.077.364-6.077.672a18.594 18.594 0 00-.103 1.956c0 14.864 17.745 26.913 39.635 26.913z" fill="#000" fill-opacity=".16"/><path d="M100.778 29.122c.072-.378.145-.752.222-1.122-2.959.054-6 1-6 1l-.42.662C59.267 34.276 32 64.48 32 101.052V110h74s-10.7-51.555-5.238-80.793l.023-.085h-.007zM158 110s11-53 5-82c2.959.054 6 1 6 1l.419.662C204.733 34.276 232 64.48 232 101.052V110h-74z" fill="#A7FFC4"/><path fill-rule="evenodd" clip-rule="evenodd" d="M101 28c-6 29 5 82 5 82H90L76 74l6-9-6-6 19-30s3.041-.946 6-1zm62 0c6 29-5 82-5 82h16l14-36-6-9 6-6-19-30s-3.041-.946-6-1z" fill="#000" fill-opacity=".15"/><path d="M183.423 85.77l.871-2.24 6.262-4.697a4 4 0 014.856.043L202 84l-18.577 1.77z" fill="#E6E6E6"/></g><g transform="translate(86, 134)"><path fill-rule="evenodd" clip-rule="evenodd" d="M40 29c0-7.732 6.268-14 14-14s14 6.268 14 14" fill="#000" fill-opacity=".7"/></g><g transform="translate(112, 122)"><path fill-rule="evenodd" clip-rule="evenodd" d="M16 8c0 4.418 5.373 8 12 8s12-3.582 12-8" fill="#000" fill-opacity=".16"/></g><g transform="translate(84, 90)"><path fill-rule="evenodd" clip-rule="evenodd" d="M16.16 27.553C18.007 31.352 22.164 34 26.998 34c4.816 0 8.961-2.63 10.817-6.407.552-1.122-.233-2.04-1.024-1.36-2.451 2.107-5.932 3.423-9.793 3.423-3.74 0-7.124-1.235-9.56-3.228-.891-.728-1.818.014-1.278 1.125zm58 0C76.007 31.352 80.164 34 84.998 34c4.816 0 8.961-2.63 10.817-6.407.552-1.122-.233-2.04-1.024-1.36-2.451 2.107-5.932 3.423-9.793 3.423-3.74 0-7.124-1.235-9.56-3.228-.891-.728-1.818.014-1.278 1.125z" fill="#000" fill-opacity=".6"/></g><g transform="translate(84, 82)"><path d="M15.63 17.159c3.915-5.51 14.648-8.598 23.893-6.328a2 2 0 10.954-3.884C29.74 4.31 17.312 7.887 12.37 14.84a2 2 0 103.26 2.318zm80.74 0c-3.915-5.51-14.648-8.598-23.893-6.328a2 2 0 11-.954-3.884c10.737-2.637 23.165.94 28.108 7.894a2 2 0 01-3.26 2.318z" fill="#000" fill-opacity=".6"/></g><g transform="translate(7, 0)"><path fill-rule="evenodd" clip-rule="evenodd" d="M218.208 107.159c-2.491-.992-4.985-3.011-6.257-5.562.47-.117 1.174-.123 1.95-.129 2.266-.018 5.147-.041 4.615-2.867-.563-2.982-5.403-2.067-7.278-1.61.579-.348 1.345-.478 2.12-.61 1.488-.253 3.011-.512 3.314-2.331.531-3.183-3.288-3.076-5.081-2.402-.265-2.118 2.005-3.884 4.141-5.545 1.249-.971 2.452-1.907 3.073-2.855a4.63 4.63 0 01.439-.549c.468-.528.858-.967.307-2.084-1.159-2.346-3.947.328-5.337 1.66-.176.17-.33.317-.455.43.876-1.628 3.321-8.403 2.95-10.122-.546-2.526-2.353-2.615-3.789-.568-.617.881-.939 2.659-1.229 4.26-.148.816-.287 1.585-.453 2.167-.866-.653-1.383-.707-1.699-.74-.428-.044-.488-.05-.548-1.451-.044-1.023.808-2.691 1.558-4.16.408-.8.787-1.542.974-2.088.082-.24.189-.515.305-.814.525-1.355 1.232-3.178.638-4.232-1.776-3.143-3.473 1.172-3.94 2.652-.494-2.137.5-3.973 1.53-5.877.614-1.135 1.241-2.294 1.573-3.554.541-2.048 1.976-7.578-.511-8.561-2.481-.981-2.51 2.123-2.533 4.662-.008.932-.016 1.788-.144 2.337l-.032.135c-.365 1.566-.924 3.964-2.107 4.711-.176.111-2.82.343-2.948.194-1.098-1.281.414-3.527 1.733-5.485.763-1.133 1.461-2.17 1.551-2.867.223-1.73-.44-2.825-2.061-2.928-.462-.03-1.087.365-1.609.694-.392.248-.725.459-.886.423-1.068-.232-.362-3.819.167-6.505.204-1.036.381-1.938.42-2.461.15-2.003-.094-7.172-3.483-4.785.059-.695.111-1.38.163-2.06.15-1.954.296-3.86.571-5.832.052-.371.175-.732.294-1.082.33-.97.634-1.86-.668-2.684-2.156-1.365-3.351 1.492-3.842 3.168-.261.89-.275 1.931-.289 2.95-.032 2.285-.061 4.453-2.869 4.516-3.362.076-2.628-2.415-1.87-4.987.294-.996.591-2.005.655-2.88.128-1.742-1.012-6.422-3.262-3.264-.526.739-.637 2.571-.739 4.26-.072 1.19-.139 2.308-.345 2.923-.559-.249-.366-1.4-.162-2.614.199-1.186.408-2.432-.067-2.95-1.497-1.632-2.818-.353-3.931.725-.42.406-.81.784-1.169.967-.024-.406-.049-.811-.075-1.217v-.006a154.381 154.381 0 01-.173-3.115c-.03-.721.094-1.703.227-2.751.272-2.15.579-4.576-.341-5.597-2.336-2.588-3.822.432-4.505 2.524-.093.288-.175.574-.254.855-.442 1.558-.83 2.928-2.979 3.145.084-1.105-.273-2.706-.645-4.371-.543-2.43-1.116-4.996-.39-6.356.267-.5.667-.587 1.066-.674.428-.093.854-.186 1.113-.785.821-1.903-.524-2.71-1.986-2.772-4.176-.176-3.807 3.317-3.463 6.581.215 2.046.422 4.002-.506 4.91-.543-.515-.531-1.037-.518-1.614.013-.588.028-1.233-.547-1.982-1.223-1.595-3.173-1.46-4.918-.738-.01-.296.063-.92.156-1.71.412-3.506 1.207-10.272-3.236-6.107-.824.774-1.005 1.864-1.184 2.935-.115.687-.228 1.367-.509 1.951-.696 1.445-2.389 3.598-3.341 4.771-.473-1.916.165-4.26.697-6.213l.122-.453c.122-.45.463-1.203.854-2.065.838-1.847 1.905-4.198 1.534-5.179-1.279-3.374-4.632.499-6.525 2.685-.445.514-.809.935-1.047 1.147-1.582 1.41-7.88 6.045-9.901 4.64-.325-.226-.364-.733-.407-1.297-.05-.653-.106-1.381-.62-1.83-.47-.41-2.477-.602-3.05-.55.358-1.493-.346-3.426-2.055-2.91-1.227.372-1.45 1.57-1.669 2.747-.165.884-.327 1.756-.912 2.256-1.5 1.284-3.168.301-4.843-.686-1.148-.676-2.299-1.355-3.401-1.306.072-.308.226-.755.405-1.273.841-2.44 2.224-6.453-1.804-4.871-1.246.49-2.13 3.351-2.441 4.54-.143.55-.242 1.019-.327 1.423-.384 1.825-.489 2.325-3.181 3.027.091-.623.092-1.298.094-1.981.003-1.25.006-2.523.555-3.54.143-.265.408-.616.707-1.012 1.157-1.53 2.81-3.718-.245-4.05-3.767-.41-4.246 4.675-4.575 8.17-.086.903-.161 1.7-.28 2.269-4.123-2.499-6.864.956-9.331 4.065l-.149.187c.447-1.419 1.553-15.557-2.965-11.237-.835.8-.533 1.846-.239 2.868.162.559.32 1.11.29 1.61-.078 1.28-.5 2.422-.996 3.618-.796 1.921-1.72 3.887-2.974 5.524-.306.401-.532.73-.71.99-.317.462-.482.704-.684.74-.222.039-.489-.17-1.047-.61l-.38-.297c-2.424-1.873-3.576-6.623-3.456-9.525.014-.347.055-.752.098-1.182.226-2.249.523-5.202-2.482-4.35-3.02.859-2.062 6.15-1.512 9.188.088.49.167.921.216 1.266.381 2.687.635 5.436.183 8.173-2.297-2.348-3.084.875-3.597 2.978-.153.63-.282 1.158-.42 1.407-.693 1.258-1.841 2.061-2.974 2.853-.467.327-.932.652-1.361 1.007-.423-1.477.273-2.833.93-4.112.585-1.14 1.14-2.22.84-3.268-1.11-3.87-4.103.931-5.117 2.558-.078.125-.143.23-.196.312-.24.373-.688 1.42-1.19 2.594-.796 1.86-1.727 4.038-2.175 4.34-1.023.688-7.605-2.528-8.27-3.141-.559-.513-.77-1.448-.98-2.38-.25-1.111-.5-2.22-1.336-2.61-4.72-2.197-1.932 5.735-1.005 7.375 2.419 4.284 3.516 9.456 2.949 14.504-.858-.302-1.915-1.312-2.468-2.078-.52-.718-.697-1.644-.868-2.535-.183-.955-.359-1.871-.94-2.451-3.288-3.28-3.673 2.878-3.406 4.791.329 2.355 1.213 3.665 2.202 5.13.518.768 1.065 1.579 1.576 2.604.944 1.898.373 4.066-.197 6.232-.256.973-.512 1.946-.63 2.893-3.43-3.3-18.196-.543-14.397 4.502 1.168 1.555 2.462.444 3.796-.7.925-.793 1.869-1.603 2.802-1.55 4.084.225 6.235 5.295 5.967 8.846-.497-1.898-2.421-3.761-3.746-1.444-.796 1.396.32 3.668 1.098 5.254.099.201.193.392.276.569-.906-.445-5.372-2.52-6.246-2.161-3.44 1.414 1.3 4.151 2.537 4.698 4.224 1.868 6.887 3.92 8.2 8.992-1.433-.459-1.847-1.05-2.306-1.704-.298-.427-.616-.88-1.246-1.34-.947-.69-1.397-.705-1.96-.723a4.663 4.663 0 01-1.13-.144l-.071-.019c-2.353-.609-5.397-1.397-8.04-.3-1.969.82-5.286 3.31-5.905 5.651-.757 2.874.844 3.606 2.904 2.143.869-.616 1.486-1.437 2.084-2.234 1.09-1.45 2.12-2.82 4.5-2.727 1.768.07 3.52.996 4.64 2.326.446.53.793 1.19 1.142 1.85.303.574.606 1.15.977 1.645.282.378.751.816 1.237 1.27.724.677 1.485 1.388 1.72 1.984 1.303 3.303-.864 6.272-2.626 8.686-.156.213-.31.423-.457.628-.419-.554-3.477-1.758-4.11-1.878-2.94-.561-4.037.798-2.199 3.512.31.457.801.773 1.29 1.086.425.274.848.546 1.146.908.37.452.656 1.03.945 1.612.266.537.534 1.079.873 1.532.926 1.238 1.997 2.077 3.1 2.941.556.436 1.12.878 1.678 1.381-.325.217-.459.028-.596-.165-.121-.171-.245-.345-.506-.245-.196.076-.462.041-.742.005-.298-.038-.612-.078-.875.009-.463.154-.633.672-.785 1.136-.12.366-.23.699-.463.793-1.912.762-3.835-.574-5.69-1.863-1.344-.935-2.653-1.845-3.896-1.912-1.614-.088-2.975.994-2.2 3.022.435 1.139 2.038 1.858 3.253 2.403.29.13.558.25.783.364 3.246 1.644 6.478 2.868 9.948 1.607 2.797 2.438 6.159 3.641 9.675 3.675-2.012.998-4 2.235-4.703 4.721-.24-.248-.55-.678-.904-1.17-1.405-1.951-3.512-4.877-4.73-1.292-1.044 3.087 3.724 6.871 5.921 8.262-2.555.755-4.677.907-7.277.607-.29-.034-.655-.143-1.038-.258-1.407-.423-3.064-.92-2.2 2.006 1.126 3.827 7.59 2.368 10.133 1.62-1.784 1.498-9.564 11.708-2.811 9.385.959-.33 1.536-1.34 2.14-2.398.768-1.344 1.581-2.767 3.278-2.975 2.478-.304 3.38 1.363 4.413 3.274.427.789.876 1.621 1.469 2.372.386.49 1.304 1.213 2.279 1.981 1.578 1.243 3.306 2.604 3.17 3.284-.091.453-.719.814-1.41 1.211-.76.438-1.598.919-1.883 1.617-.633 1.549-.347 2.746.532 4.078 1.172 1.778 3.09 2.409 4.923 3.012.573.189 1.138.375 1.67.592 3.163 1.295 4.31 2.867 5.728 6.217-2.5.12-9.619 7.36-5.257 8.648 1.12.331 1.348-.254 1.604-.912.115-.295.235-.605.445-.853l.543-1.023.278-.522c.458-1.198.965-1.271 1.52-.221.061-.015.463.082.891.185.43.104.887.215 1.056.225 1.188.073 2.103-.533 3.026-1.144.404-.267.81-.535 1.24-.749.314-.155.625-.254.929-.351.686-.219 1.332-.425 1.866-1.235-.089.135.554-2.511.565-2.536.136-.315.379-.453.628-.594.255-.144.518-.293.682-.64-8.749-9.085-14.457-21.119-15.489-34.464C72.42 132.776 69 128.288 69 123v-13c0-5.035 3.1-9.345 7.497-11.126.531.374 1.27 0 1.503-.842-.463-1.506 3.296-27.854 13-34.876 3.618-2.438 23.008-2.619 42.313-2.606 19.096.014 38.108.195 41.687 2.606 9.704 7.022 13.463 33.37 13 34.876.233.843.972 1.216 1.503.842C193.899 100.655 197 104.965 197 110v13c0 5.288-3.42 9.776-8.168 11.375a55.708 55.708 0 01-11.076 29.289c.209.808.41 1.626.556 2.504.182 1.099.231 2.136.278 3.141.095 2.038.185 3.943 1.367 5.952.19.324.426.593.661.862.332.38.663.758.861 1.282.165.438.206 1.046.248 1.675.094 1.404.195 2.919 1.701 2.92 3.107 0 1.375-5.966.597-7.384a44.374 44.374 0 00-.816-1.411c-1.033-1.733-1.63-2.735-1.567-5.633 1.745 1.16 7.53 3.376 9.448 2.316 3.502-1.934-2.689-3.893-5.825-4.886-.833-.263-1.45-.459-1.613-.567.637-.623 1.309-1.137 1.981-1.65 1.125-.861 2.251-1.721 3.216-3.096.246-.35.488-.732.734-1.119 1.012-1.596 2.091-3.298 3.815-3.382.396-.02 1.045.295 1.774.647 1.459.705 3.235 1.564 3.936.219.727-1.394-.273-1.892-1.158-2.333-.29-.144-.568-.282-.769-.444-.554-.446-.949-.564-1.21-.642-.446-.133-.496-.148-.264-1.492 1.085 1.165 2.789.429 3.244-1.015.29-.922-.157-1.461-.565-1.953-.281-.34-.544-.657-.532-1.061-.012.387.834-5.115.7-4.938.846-1.117 3.811-.794 5.339-.628l.074.008c2.132.231 2.17.307 3.038 2.012l.217.424c.882 1.715 3.198 5.177 3.707.641.121-1.085-.869-3.404-1.45-4.338-.324-.52-.985-.942-1.603-1.335-.578-.369-1.118-.713-1.309-1.092-.477-.945.082-2.478.683-4.126.588-1.612 1.216-3.334.956-4.728.304.117.738.705 1.235 1.379 1.287 1.747 2.996 4.064 3.963.22.324-1.283-1.014-3.267-2.272-5.133-1.487-2.207-2.863-4.247-1.242-4.761 2.289-.726 4.611 2.225 5.25 4.044.195.555.273 1.371.354 2.217.117 1.21.239 2.48.714 3.136 3.036 4.203 3.41-2.741 3.157-4.572-.559-4.026-1.984-6.988-5.623-8.51 1.14-1.414.006-2.575-.916-3.519-.125-.129-.247-.254-.359-.374.556-.603 2.224-.754 4.012-.914 3.123-.281 6.613-.596 5.196-3.413-.394-.784-1.539-1.096-2.512-1.361-.357-.098-.69-.189-.955-.294zM59.49 138.807c.01-.136-.12-.086-.347.104l.347-.104z" fill="#C93305"/></g></svg>