<?xml version="1.0" standalone="no"?><!DOCTYPE svg PUBLIC "-//W3C//DTD SVG 1.1//EN" "http://www.w3.org/Graphics/SVG/1.1/DTD/svg11.dtd"><svg t="1606110225439" class="icon" viewBox="0 0 1024 1024" version="1.1" xmlns="http://www.w3.org/2000/svg" p-id="2443" xmlns:xlink="http://www.w3.org/1999/xlink" width="128" height="128"><defs><style type="text/css"></style></defs><path d="M511.743937 0.707818C229.199728 0.707818 0.116582 229.790964 0.116582 512.335173c0 174.027413 86.924189 327.74462 219.702479 420.168968 25.943604-90.350859 91.620768-158.343004 180.959864-189.220514a318.434734 318.434734 0 0 1 9.468104-3.097744c1.095036-0.341418 2.181744-0.695327 3.289271-1.024253a327.707147 327.707147 0 0 1 26.368294-6.69096c1.182472-0.249818 2.381599-0.466327 3.568235-0.703655a324.417876 324.417876 0 0 1 14.389519-2.552307 368.839688 368.839688 0 0 1 10.042685-1.398981c1.336527-0.166545 2.664726-0.349745 4.00958-0.5038a368.165179 368.165179 0 0 1 14.098065-1.349017H537.704195c4.746543 0.353909 9.438958 0.820236 14.102229 1.349017 1.34069 0.154054 2.668889 0.337254 4.001252 0.5038a369.147797 369.147797 0 0 1 14.397847 2.102635 362.111255 362.111255 0 0 1 9.992721 1.836162c1.211618 0.245654 2.431562 0.466327 3.634853 0.720309 8.94765 1.881963 17.712099 4.105343 26.276694 6.665978 1.194963 0.358073 2.369108 0.74529 3.555744 1.115854a307.068013 307.068013 0 0 1 9.118359 2.985326c89.376569 30.835874 155.091206 98.798873 181.076445 189.133078 132.661709-92.441004 219.502625-246.087428 219.502625-420.031569C1023.371291 229.786801 794.292308 0.707818 511.743937 0.707818z m194.046165 626.943364c-43.855558 59.539967-114.424992 98.186819-194.042002 98.186818-79.771065 0-150.452917-38.800906-194.29182-98.536563-250.596644-28.799857-36.052907-532.770289 194.529147-411.437829 1.84449-0.970127 3.68898-1.902781 5.53347-2.793798 99.54-48.181573 194.400075 18.140954 250.067862 110.969175 73.84205 121.919533 80.06252 289.664022-61.796657 303.612197z" fill="#A6D4AE" p-id="2444"></path><path d="M730.796889 434.67507l-216.450681 0.945145h-2.598108v-0.012491l-215.742863-0.932654c-10.388267 81.315773 7.315505 143.516303 42.135977 193.908766a200.612217 200.612217 0 0 1-20.680771-1.286563c43.838903 59.735658 114.520755 98.536564 194.291821 98.536564 79.617011 0 150.186445-38.646851 194.042002-98.186819a197.560273 197.560273 0 0 1-17.012609 0.936818c34.816308-50.392463 52.399335-112.588829 42.015232-193.908766z" fill="#FCE9EA" p-id="2445"></path><path d="M565.858689 729.210544zM439.908758 732.466506c1.182472-0.249818 2.381599-0.466327 3.568234-0.703654-1.186636 0.237327-2.385762 0.453836-3.568234 0.703654zM467.909197 727.811563c1.336527-0.166545 2.664726-0.349745 4.00958-0.5038-1.344854 0.154054-2.673053 0.337254-4.00958 0.5038zM453.528005 729.914198zM610.113955 739.132484c1.194963 0.358073 2.369108 0.74529 3.555744 1.115854-1.182472-0.370563-2.360781-0.757781-3.555744-1.115854zM622.792221 743.233664c0.79109 0.270636 1.578017 0.557927 2.364944 0.83689a119.421352 119.421352 0 0 1-16.221518 30.710965c13.344447 30.203002 8.643704 125.804203-14.106393 109.79503l-41.548904-29.149602-41.544741-29.270347 2.952017-2.077654c-0.982618 0.024982-1.961072 0.074945-2.952017 0.074946-1.032581 0-2.048508-0.054127-3.072762-0.079109l2.95618 2.081817-41.54474 29.270347-41.544741 29.149602c-22.775078 16.025828-27.46333-79.804374-14.060592-109.899121a119.587898 119.587898 0 0 1-16.125755-30.540256c0.807745-0.283127 1.61549-0.578745 2.427399-0.857708-89.34326 30.87751-155.01626 98.869655-180.959864 189.220514 82.798027 57.637186 183.408081 91.458386 291.924875 91.458386 108.604231 0 209.293394-33.875327 292.12473-91.595786-25.976913-90.330041-91.69155-158.29304-181.068118-189.128914zM551.810587 727.307763c1.34069 0.154054 2.668889 0.337254 4.001253 0.5038-1.332363-0.166545-2.656399-0.349745-4.001253-0.5038zM580.206572 731.750361c1.211618 0.245654 2.431562 0.466327 3.634852 0.720309-1.20329-0.253982-2.423235-0.474654-3.634852-0.720309zM410.251192 740.18172c1.095036-0.341418 2.181744-0.695327 3.289271-1.024254-1.107527 0.328927-2.194235 0.682836-3.289271 1.024254z" fill="#CFE07D" p-id="2446"></path><path d="M414.477281 774.681592c3.472471-7.798487 8.156559-11.191848 14.060592-7.061524l41.544741 29.266184 38.588561 27.188531c1.024254 0.024982 2.044344 0.079109 3.072762 0.079109 0.990945 0 1.969399-0.049964 2.952016-0.074946l38.592724-27.192694 41.548905-29.266184c5.929015-4.14698 10.629758-0.707818 14.106392 7.165615a119.550425 119.550425 0 0 0 16.221518-30.710965c-0.786927-0.278963-1.573854-0.566254-2.364944-0.836891a324.097276 324.097276 0 0 0-9.118359-2.985325c-1.186636-0.370563-2.360781-0.757781-3.555743-1.115854a328.952073 328.952073 0 0 0-26.276695-6.665978c-1.20329-0.253982-2.423235-0.474654-3.634852-0.720309a349.807717 349.807717 0 0 0-14.34372-2.539817 371.441959 371.441959 0 0 0-10.046849-1.398981c-1.332363-0.166545-2.660562-0.349745-4.001252-0.5038a367.58227 367.58227 0 0 0-14.102229-1.349017H486.029332a366.566344 366.566344 0 0 0-14.098064 1.349017c-1.344854 0.154054-2.673053 0.337254-4.00958 0.5038-3.36838 0.424691-6.720105 0.886854-10.042685 1.398981a349.212317 349.212317 0 0 0-14.38952 2.552308c-1.190799 0.237327-2.385762 0.453836-3.568234 0.703654-8.985122 1.89029-17.778717 4.121998-26.368295 6.69096-1.103363 0.328927-2.190072 0.682836-3.289271 1.024254-3.18518 0.986781-6.341215 2.019363-9.468104 3.097744-0.811909 0.278963-1.619654 0.574582-2.427398 0.857708a119.042462 119.042462 0 0 0 16.1091 30.54442z" fill="#FEFEFE" p-id="2447"></path><path d="M594.833418 767.615905l-41.548904 29.266184-38.592725 27.192694-2.952016 2.077653 41.544741 29.270348 41.548904 29.149602c22.750097 16.009173 27.450839-79.592029 14.106392-109.795031-3.476634-7.869268-8.177377-11.30843-14.106392-7.16145zM428.537873 767.615905c-5.904033-4.130325-10.588121-0.736963-14.060592 7.061523-13.398574 30.094747-8.714486 125.920785 14.060592 109.899121l41.544741-29.149602 41.544741-29.270347-2.95618-2.081817-38.588561-27.188531-41.544741-29.270347z" fill="#FF7866" p-id="2448"></path><path d="M767.582596 324.038985c-55.663624-92.828222-150.523699-159.154912-250.067863-110.969175 98.861327-47.815174 193.967057 18.353299 250.067863 110.969175zM296.001073 434.67507l215.742864 0.932654V215.742863l0.237327 0.116582c-230.582055-121.328297-445.121628 382.637971-194.529148 411.437828a200.687162 200.687162 0 0 0 20.680771 1.286563c-34.816308-50.392463-52.52008-112.588829-42.131814-193.908766z" fill="#FF9182" p-id="2449"></path><path d="M517.514733 213.06981c-1.84449 0.891018-3.68898 1.823672-5.533469 2.793798l-0.237327-0.116581v219.877351h2.598107l216.450681-0.945145c10.384103 81.315773-7.198923 143.516303-42.019395 193.908766a197.560273 197.560273 0 0 0 17.012609-0.936817c141.859176-13.952338 135.638707-181.692664 61.792493-303.612197-56.096642-92.615876-151.202371-158.784349-250.063699-110.969175z" fill="#FF7866" p-id="2450"></path></svg>